<?xml version="1.0" encoding="UTF-8"?>
<svg xmlns="http://www.w3.org/2000/svg" xmlns:xlink="http://www.w3.org/1999/xlink" width="1064" height="144" viewBox="0 0 1064 144" role="img" aria-label="Contribution graph animation">
<title>Tetrass</title>
<defs>
<symbol id="cE" viewBox="0 0 18 18"><rect width="18" height="18" fill="#ebedf0" rx="2"/></symbol>
<symbol id="cG1" viewBox="0 0 18 18"><rect width="18" height="18" fill="#9be9a8" rx="2"/></symbol>
<symbol id="cG2" viewBox="0 0 18 18"><rect width="18" height="18" fill="#40c463" rx="2"/></symbol>
<symbol id="cG3" viewBox="0 0 18 18"><rect width="18" height="18" fill="#30a14e" rx="2"/></symbol>
<symbol id="cG4" viewBox="0 0 18 18"><rect width="18" height="18" fill="#216e39" rx="2"/></symbol>
</defs>
<rect width="100%" height="100%" fill="#ffffff"/>
<g id="emptyCells">
<use href="#cE" x="2" y="2"/><use href="#cE" x="22" y="2"/><use href="#cE" x="42" y="2"/><use href="#cE" x="62" y="2"/><use href="#cE" x="82" y="2"/><use href="#cE" x="102" y="2"/><use href="#cE" x="122" y="2"/><use href="#cE" x="142" y="2"/><use href="#cE" x="162" y="2"/><use href="#cE" x="182" y="2"/><use href="#cE" x="202" y="2"/><use href="#cE" x="222" y="2"/><use href="#cE" x="242" y="2"/><use href="#cE" x="262" y="2"/><use href="#cE" x="282" y="2"/><use href="#cE" x="302" y="2"/><use href="#cE" x="322" y="2"/><use href="#cE" x="342" y="2"/><use href="#cE" x="362" y="2"/><use href="#cE" x="382" y="2"/><use href="#cE" x="402" y="2"/><use href="#cE" x="422" y="2"/><use href="#cE" x="442" y="2"/><use href="#cE" x="462" y="2"/><use href="#cE" x="482" y="2"/><use href="#cE" x="502" y="2"/><use href="#cE" x="522" y="2"/><use href="#cE" x="542" y="2"/><use href="#cE" x="562" y="2"/><use href="#cE" x="582" y="2"/><use href="#cE" x="602" y="2"/><use href="#cE" x="622" y="2"/><use href="#cE" x="642" y="2"/><use href="#cE" x="662" y="2"/><use href="#cE" x="682" y="2"/><use href="#cE" x="702" y="2"/><use href="#cE" x="722" y="2"/><use href="#cE" x="742" y="2"/><use href="#cE" x="762" y="2"/><use href="#cE" x="782" y="2"/><use href="#cE" x="802" y="2"/><use href="#cE" x="822" y="2"/><use href="#cE" x="842" y="2"/><use href="#cE" x="862" y="2"/><use href="#cE" x="882" y="2"/><use href="#cE" x="902" y="2"/><use href="#cE" x="922" y="2"/><use href="#cE" x="942" y="2"/><use href="#cE" x="962" y="2"/><use href="#cE" x="982" y="2"/><use href="#cE" x="1002" y="2"/><use href="#cE" x="1022" y="2"/><use href="#cE" x="1042" y="2"/><use href="#cE" x="2" y="22"/><use href="#cE" x="22" y="22"/><use href="#cE" x="42" y="22"/><use href="#cE" x="62" y="22"/><use href="#cE" x="82" y="22"/><use href="#cE" x="102" y="22"/><use href="#cE" x="122" y="22"/><use href="#cE" x="142" y="22"/><use href="#cE" x="162" y="22"/><use href="#cE" x="182" y="22"/><use href="#cE" x="202" y="22"/><use href="#cE" x="222" y="22"/><use href="#cE" x="242" y="22"/><use href="#cE" x="262" y="22"/><use href="#cE" x="282" y="22"/><use href="#cE" x="302" y="22"/><use href="#cE" x="322" y="22"/><use href="#cE" x="342" y="22"/><use href="#cE" x="362" y="22"/><use href="#cE" x="382" y="22"/><use href="#cE" x="402" y="22"/><use href="#cE" x="422" y="22"/><use href="#cE" x="442" y="22"/><use href="#cE" x="462" y="22"/><use href="#cE" x="482" y="22"/><use href="#cE" x="502" y="22"/><use href="#cE" x="522" y="22"/><use href="#cE" x="542" y="22"/><use href="#cE" x="562" y="22"/><use href="#cE" x="582" y="22"/><use href="#cE" x="602" y="22"/><use href="#cE" x="622" y="22"/><use href="#cE" x="642" y="22"/><use href="#cE" x="662" y="22"/><use href="#cE" x="682" y="22"/><use href="#cE" x="702" y="22"/><use href="#cE" x="722" y="22"/><use href="#cE" x="742" y="22"/><use href="#cE" x="762" y="22"/><use href="#cE" x="782" y="22"/><use href="#cE" x="802" y="22"/><use href="#cE" x="822" y="22"/><use href="#cE" x="842" y="22"/><use href="#cE" x="862" y="22"/><use href="#cE" x="882" y="22"/><use href="#cE" x="902" y="22"/><use href="#cE" x="922" y="22"/><use href="#cE" x="942" y="22"/><use href="#cE" x="962" y="22"/><use href="#cE" x="982" y="22"/><use href="#cE" x="1002" y="22"/><use href="#cE" x="1022" y="22"/><use href="#cE" x="1042" y="22"/><use href="#cE" x="2" y="42"/><use href="#cE" x="22" y="42"/><use href="#cE" x="42" y="42"/><use href="#cE" x="62" y="42"/><use href="#cE" x="82" y="42"/><use href="#cE" x="102" y="42"/><use href="#cE" x="122" y="42"/><use href="#cE" x="142" y="42"/><use href="#cE" x="162" y="42"/><use href="#cE" x="182" y="42"/><use href="#cE" x="202" y="42"/><use href="#cE" x="222" y="42"/><use href="#cE" x="242" y="42"/><use href="#cE" x="262" y="42"/><use href="#cE" x="282" y="42"/><use href="#cE" x="302" y="42"/><use href="#cE" x="322" y="42"/><use href="#cE" x="342" y="42"/><use href="#cE" x="362" y="42"/><use href="#cE" x="382" y="42"/><use href="#cE" x="402" y="42"/><use href="#cE" x="422" y="42"/><use href="#cE" x="442" y="42"/><use href="#cE" x="462" y="42"/><use href="#cE" x="482" y="42"/><use href="#cE" x="502" y="42"/><use href="#cE" x="522" y="42"/><use href="#cE" x="542" y="42"/><use href="#cE" x="562" y="42"/><use href="#cE" x="582" y="42"/><use href="#cE" x="602" y="42"/><use href="#cE" x="622" y="42"/><use href="#cE" x="642" y="42"/><use href="#cE" x="662" y="42"/><use href="#cE" x="682" y="42"/><use href="#cE" x="702" y="42"/><use href="#cE" x="722" y="42"/><use href="#cE" x="742" y="42"/><use href="#cE" x="762" y="42"/><use href="#cE" x="782" y="42"/><use href="#cE" x="802" y="42"/><use href="#cE" x="822" y="42"/><use href="#cE" x="842" y="42"/><use href="#cE" x="862" y="42"/><use href="#cE" x="882" y="42"/><use href="#cE" x="902" y="42"/><use href="#cE" x="922" y="42"/><use href="#cE" x="942" y="42"/><use href="#cE" x="962" y="42"/><use href="#cE" x="982" y="42"/><use href="#cE" x="1002" y="42"/><use href="#cE" x="1022" y="42"/><use href="#cE" x="1042" y="42"/><use href="#cE" x="2" y="62"/><use href="#cE" x="22" y="62"/><use href="#cE" x="42" y="62"/><use href="#cE" x="62" y="62"/><use href="#cE" x="82" y="62"/><use href="#cE" x="102" y="62"/><use href="#cE" x="122" y="62"/><use href="#cE" x="142" y="62"/><use href="#cE" x="162" y="62"/><use href="#cE" x="182" y="62"/><use href="#cE" x="202" y="62"/><use href="#cE" x="222" y="62"/><use href="#cE" x="242" y="62"/><use href="#cE" x="262" y="62"/><use href="#cE" x="282" y="62"/><use href="#cE" x="302" y="62"/><use href="#cE" x="322" y="62"/><use href="#cE" x="342" y="62"/><use href="#cE" x="362" y="62"/><use href="#cE" x="382" y="62"/><use href="#cE" x="402" y="62"/><use href="#cE" x="422" y="62"/><use href="#cE" x="442" y="62"/><use href="#cE" x="462" y="62"/><use href="#cE" x="482" y="62"/><use href="#cE" x="502" y="62"/><use href="#cE" x="522" y="62"/><use href="#cE" x="542" y="62"/><use href="#cE" x="562" y="62"/><use href="#cE" x="582" y="62"/><use href="#cE" x="602" y="62"/><use href="#cE" x="622" y="62"/><use href="#cE" x="642" y="62"/><use href="#cE" x="662" y="62"/><use href="#cE" x="682" y="62"/><use href="#cE" x="702" y="62"/><use href="#cE" x="722" y="62"/><use href="#cE" x="742" y="62"/><use href="#cE" x="762" y="62"/><use href="#cE" x="782" y="62"/><use href="#cE" x="802" y="62"/><use href="#cE" x="822" y="62"/><use href="#cE" x="842" y="62"/><use href="#cE" x="862" y="62"/><use href="#cE" x="882" y="62"/><use href="#cE" x="902" y="62"/><use href="#cE" x="922" y="62"/><use href="#cE" x="942" y="62"/><use href="#cE" x="962" y="62"/><use href="#cE" x="982" y="62"/><use href="#cE" x="1002" y="62"/><use href="#cE" x="1022" y="62"/><use href="#cE" x="1042" y="62"/><use href="#cE" x="2" y="82"/><use href="#cE" x="22" y="82"/><use href="#cE" x="42" y="82"/><use href="#cE" x="62" y="82"/><use href="#cE" x="82" y="82"/><use href="#cE" x="102" y="82"/><use href="#cE" x="122" y="82"/><use href="#cE" x="142" y="82"/><use href="#cE" x="162" y="82"/><use href="#cE" x="182" y="82"/><use href="#cE" x="202" y="82"/><use href="#cE" x="222" y="82"/><use href="#cE" x="242" y="82"/><use href="#cE" x="262" y="82"/><use href="#cE" x="282" y="82"/><use href="#cE" x="302" y="82"/><use href="#cE" x="322" y="82"/><use href="#cE" x="342" y="82"/><use href="#cE" x="362" y="82"/><use href="#cE" x="382" y="82"/><use href="#cE" x="402" y="82"/><use href="#cE" x="422" y="82"/><use href="#cE" x="442" y="82"/><use href="#cE" x="462" y="82"/><use href="#cE" x="482" y="82"/><use href="#cE" x="502" y="82"/><use href="#cE" x="522" y="82"/><use href="#cE" x="542" y="82"/><use href="#cE" x="562" y="82"/><use href="#cE" x="582" y="82"/><use href="#cE" x="602" y="82"/><use href="#cE" x="622" y="82"/><use href="#cE" x="642" y="82"/><use href="#cE" x="662" y="82"/><use href="#cE" x="682" y="82"/><use href="#cE" x="702" y="82"/><use href="#cE" x="722" y="82"/><use href="#cE" x="742" y="82"/><use href="#cE" x="762" y="82"/><use href="#cE" x="782" y="82"/><use href="#cE" x="802" y="82"/><use href="#cE" x="822" y="82"/><use href="#cE" x="842" y="82"/><use href="#cE" x="862" y="82"/><use href="#cE" x="882" y="82"/><use href="#cE" x="902" y="82"/><use href="#cE" x="922" y="82"/><use href="#cE" x="942" y="82"/><use href="#cE" x="962" y="82"/><use href="#cE" x="982" y="82"/><use href="#cE" x="1002" y="82"/><use href="#cE" x="1022" y="82"/><use href="#cE" x="1042" y="82"/><use href="#cE" x="2" y="102"/><use href="#cE" x="22" y="102"/><use href="#cE" x="42" y="102"/><use href="#cE" x="62" y="102"/><use href="#cE" x="82" y="102"/><use href="#cE" x="102" y="102"/><use href="#cE" x="122" y="102"/><use href="#cE" x="142" y="102"/><use href="#cE" x="162" y="102"/><use href="#cE" x="182" y="102"/><use href="#cE" x="202" y="102"/><use href="#cE" x="222" y="102"/><use href="#cE" x="242" y="102"/><use href="#cE" x="262" y="102"/><use href="#cE" x="282" y="102"/><use href="#cE" x="302" y="102"/><use href="#cE" x="322" y="102"/><use href="#cE" x="342" y="102"/><use href="#cE" x="362" y="102"/><use href="#cE" x="382" y="102"/><use href="#cE" x="402" y="102"/><use href="#cE" x="422" y="102"/><use href="#cE" x="442" y="102"/><use href="#cE" x="462" y="102"/><use href="#cE" x="482" y="102"/><use href="#cE" x="502" y="102"/><use href="#cE" x="522" y="102"/><use href="#cE" x="542" y="102"/><use href="#cE" x="562" y="102"/><use href="#cE" x="582" y="102"/><use href="#cE" x="602" y="102"/><use href="#cE" x="622" y="102"/><use href="#cE" x="642" y="102"/><use href="#cE" x="662" y="102"/><use href="#cE" x="682" y="102"/><use href="#cE" x="702" y="102"/><use href="#cE" x="722" y="102"/><use href="#cE" x="742" y="102"/><use href="#cE" x="762" y="102"/><use href="#cE" x="782" y="102"/><use href="#cE" x="802" y="102"/><use href="#cE" x="822" y="102"/><use href="#cE" x="842" y="102"/><use href="#cE" x="862" y="102"/><use href="#cE" x="882" y="102"/><use href="#cE" x="902" y="102"/><use href="#cE" x="922" y="102"/><use href="#cE" x="942" y="102"/><use href="#cE" x="962" y="102"/><use href="#cE" x="982" y="102"/><use href="#cE" x="1002" y="102"/><use href="#cE" x="1022" y="102"/><use href="#cE" x="1042" y="102"/><use href="#cE" x="2" y="122"/><use href="#cE" x="22" y="122"/><use href="#cE" x="42" y="122"/><use href="#cE" x="62" y="122"/><use href="#cE" x="82" y="122"/><use href="#cE" x="102" y="122"/><use href="#cE" x="122" y="122"/><use href="#cE" x="142" y="122"/><use href="#cE" x="162" y="122"/><use href="#cE" x="182" y="122"/><use href="#cE" x="202" y="122"/><use href="#cE" x="222" y="122"/><use href="#cE" x="242" y="122"/><use href="#cE" x="262" y="122"/><use href="#cE" x="282" y="122"/><use href="#cE" x="302" y="122"/><use href="#cE" x="322" y="122"/><use href="#cE" x="342" y="122"/><use href="#cE" x="362" y="122"/><use href="#cE" x="382" y="122"/><use href="#cE" x="402" y="122"/><use href="#cE" x="422" y="122"/><use href="#cE" x="442" y="122"/><use href="#cE" x="462" y="122"/><use href="#cE" x="482" y="122"/><use href="#cE" x="502" y="122"/><use href="#cE" x="522" y="122"/><use href="#cE" x="542" y="122"/><use href="#cE" x="562" y="122"/><use href="#cE" x="582" y="122"/><use href="#cE" x="602" y="122"/><use href="#cE" x="622" y="122"/><use href="#cE" x="642" y="122"/><use href="#cE" x="662" y="122"/><use href="#cE" x="682" y="122"/><use href="#cE" x="702" y="122"/><use href="#cE" x="722" y="122"/><use href="#cE" x="742" y="122"/><use href="#cE" x="762" y="122"/><use href="#cE" x="782" y="122"/><use href="#cE" x="802" y="122"/><use href="#cE" x="822" y="122"/><use href="#cE" x="842" y="122"/><use href="#cE" x="862" y="122"/><use href="#cE" x="882" y="122"/><use href="#cE" x="902" y="122"/><use href="#cE" x="922" y="122"/><use href="#cE" x="942" y="122"/><use href="#cE" x="962" y="122"/><use href="#cE" x="982" y="122"/><use href="#cE" x="1002" y="122"/><use href="#cE" x="1022" y="122"/><use href="#cE" x="1042" y="122"/>
</g>
<!-- grassDrops: animated non-zero cells only. All-zero boards keep this group empty (stable id for DOM/tests). -->
<g id="grassDrops">
<g>
<animate attributeName="opacity" dur="5580ms" repeatCount="indefinite" calcMode="discrete" keyTimes="0;0.075269;0.998800;1" values="1;1;0;0"/>
<g>
<animateTransform attributeName="transform" type="translate" dur="5580ms" repeatCount="indefinite" calcMode="linear" keyTimes="0;0.075269;0.998800;1" values="0,-280;0,0;0,0;0,-280"/>
<use href="#cG1" x="42" y="2"/>
<use href="#cG1" x="42" y="122"/>
</g>
</g>
<g>
<animate attributeName="opacity" dur="5580ms" repeatCount="indefinite" calcMode="discrete" keyTimes="0;0.075269;0.150538;0.998800;1" values="0;1;1;0;0"/>
<g>
<animateTransform attributeName="transform" type="translate" dur="5580ms" repeatCount="indefinite" calcMode="linear" keyTimes="0;0.075269;0.150538;0.998800;1" values="0,-280;0,-280;0,0;0,0;0,-280"/>
<use href="#cG1" x="222" y="2"/>
<use href="#cG1" x="222" y="22"/>
<use href="#cG1" x="222" y="42"/>
<use href="#cG1" x="182" y="82"/>
<use href="#cG1" x="202" y="82"/>
</g>
</g>
<g>
<animate attributeName="opacity" dur="5580ms" repeatCount="indefinite" calcMode="discrete" keyTimes="0;0.150538;0.225806;0.998800;1" values="0;1;1;0;0"/>
<g>
<animateTransform attributeName="transform" type="translate" dur="5580ms" repeatCount="indefinite" calcMode="linear" keyTimes="0;0.150538;0.225806;0.998800;1" values="0,-280;0,-280;0,0;0,0;0,-280"/>
<use href="#cG1" x="302" y="2"/>
<use href="#cG1" x="322" y="2"/>
<use href="#cG1" x="302" y="22"/>
<use href="#cG1" x="322" y="22"/>
<use href="#cG1" x="242" y="42"/>
<use href="#cG1" x="302" y="42"/>
<use href="#cG3" x="322" y="42"/>
<use href="#cG1" x="242" y="62"/>
<use href="#cG1" x="322" y="62"/>
<use href="#cG1" x="302" y="82"/>
<use href="#cG1" x="322" y="82"/>
<use href="#cG1" x="342" y="82"/>
<use href="#cG1" x="342" y="102"/>
<use href="#cG1" x="282" y="122"/>
</g>
</g>
<g>
<animate attributeName="opacity" dur="5580ms" repeatCount="indefinite" calcMode="discrete" keyTimes="0;0.225806;0.301075;0.998800;1" values="0;1;1;0;0"/>
<g>
<animateTransform attributeName="transform" type="translate" dur="5580ms" repeatCount="indefinite" calcMode="linear" keyTimes="0;0.225806;0.301075;0.998800;1" values="0,-280;0,-280;0,0;0,0;0,-280"/>
<use href="#cG1" x="402" y="2"/>
<use href="#cG1" x="462" y="2"/>
<use href="#cG3" x="402" y="22"/>
<use href="#cG1" x="422" y="22"/>
<use href="#cG1" x="462" y="22"/>
<use href="#cG1" x="402" y="42"/>
<use href="#cG2" x="422" y="42"/>
<use href="#cG1" x="462" y="42"/>
<use href="#cG1" x="442" y="62"/>
<use href="#cG1" x="362" y="82"/>
<use href="#cG1" x="422" y="82"/>
<use href="#cG1" x="462" y="102"/>
<use href="#cG1" x="382" y="122"/>
<use href="#cG1" x="462" y="122"/>
</g>
</g>
<g>
<animate attributeName="opacity" dur="5580ms" repeatCount="indefinite" calcMode="discrete" keyTimes="0;0.301075;0.376344;0.998800;1" values="0;1;1;0;0"/>
<g>
<animateTransform attributeName="transform" type="translate" dur="5580ms" repeatCount="indefinite" calcMode="linear" keyTimes="0;0.301075;0.376344;0.998800;1" values="0,-280;0,-280;0,0;0,0;0,-280"/>
<use href="#cG1" x="502" y="22"/>
<use href="#cG1" x="522" y="22"/>
<use href="#cG1" x="542" y="22"/>
<use href="#cG1" x="562" y="22"/>
<use href="#cG1" x="522" y="42"/>
<use href="#cG1" x="542" y="42"/>
<use href="#cG1" x="562" y="42"/>
<use href="#cG1" x="482" y="62"/>
<use href="#cG1" x="502" y="62"/>
<use href="#cG1" x="522" y="62"/>
<use href="#cG1" x="542" y="62"/>
<use href="#cG1" x="562" y="62"/>
<use href="#cG1" x="482" y="82"/>
<use href="#cG1" x="502" y="82"/>
<use href="#cG1" x="522" y="82"/>
<use href="#cG1" x="582" y="82"/>
<use href="#cG1" x="482" y="102"/>
<use href="#cG1" x="502" y="102"/>
<use href="#cG1" x="562" y="122"/>
</g>
</g>
<g>
<animate attributeName="opacity" dur="5580ms" repeatCount="indefinite" calcMode="discrete" keyTimes="0;0.376344;0.451613;0.998800;1" values="0;1;1;0;0"/>
<g>
<animateTransform attributeName="transform" type="translate" dur="5580ms" repeatCount="indefinite" calcMode="linear" keyTimes="0;0.376344;0.451613;0.998800;1" values="0,-280;0,-280;0,0;0,0;0,-280"/>
<use href="#cG1" x="702" y="2"/>
<use href="#cG1" x="642" y="42"/>
<use href="#cG1" x="642" y="62"/>
<use href="#cG1" x="702" y="82"/>
<use href="#cG1" x="702" y="102"/>
<use href="#cG1" x="682" y="122"/>
</g>
</g>
<g>
<animate attributeName="opacity" dur="5580ms" repeatCount="indefinite" calcMode="discrete" keyTimes="0;0.451613;0.526882;0.998800;1" values="0;1;1;0;0"/>
<g>
<animateTransform attributeName="transform" type="translate" dur="5580ms" repeatCount="indefinite" calcMode="linear" keyTimes="0;0.451613;0.526882;0.998800;1" values="0,-280;0,-280;0,0;0,0;0,-280"/>
<use href="#cG1" x="782" y="2"/>
<use href="#cG1" x="802" y="2"/>
<use href="#cG1" x="822" y="2"/>
<use href="#cG2" x="782" y="22"/>
<use href="#cG1" x="802" y="22"/>
<use href="#cG4" x="782" y="42"/>
<use href="#cG1" x="742" y="62"/>
<use href="#cG4" x="782" y="62"/>
<use href="#cG1" x="802" y="62"/>
<use href="#cG1" x="822" y="62"/>
<use href="#cG1" x="742" y="82"/>
<use href="#cG1" x="782" y="82"/>
<use href="#cG1" x="822" y="82"/>
<use href="#cG1" x="742" y="102"/>
<use href="#cG1" x="802" y="102"/>
<use href="#cG1" x="822" y="102"/>
<use href="#cG1" x="742" y="122"/>
<use href="#cG2" x="822" y="122"/>
</g>
</g>
<g>
<animate attributeName="opacity" dur="5580ms" repeatCount="indefinite" calcMode="discrete" keyTimes="0;0.526882;0.602151;0.998800;1" values="0;1;1;0;0"/>
<g>
<animateTransform attributeName="transform" type="translate" dur="5580ms" repeatCount="indefinite" calcMode="linear" keyTimes="0;0.526882;0.602151;0.998800;1" values="0,-280;0,-280;0,0;0,0;0,-280"/>
<use href="#cG4" x="882" y="2"/>
<use href="#cG2" x="902" y="2"/>
<use href="#cG2" x="942" y="2"/>
<use href="#cG1" x="842" y="22"/>
<use href="#cG1" x="882" y="22"/>
<use href="#cG1" x="902" y="22"/>
<use href="#cG4" x="942" y="22"/>
<use href="#cG1" x="842" y="42"/>
<use href="#cG1" x="882" y="42"/>
<use href="#cG1" x="922" y="42"/>
<use href="#cG1" x="942" y="42"/>
<use href="#cG1" x="842" y="62"/>
<use href="#cG1" x="862" y="62"/>
<use href="#cG1" x="882" y="62"/>
<use href="#cG1" x="902" y="62"/>
<use href="#cG2" x="922" y="62"/>
<use href="#cG1" x="942" y="62"/>
<use href="#cG1" x="842" y="82"/>
<use href="#cG1" x="862" y="82"/>
<use href="#cG1" x="882" y="82"/>
<use href="#cG1" x="902" y="82"/>
<use href="#cG1" x="922" y="82"/>
<use href="#cG1" x="942" y="82"/>
<use href="#cG1" x="842" y="102"/>
<use href="#cG1" x="862" y="102"/>
<use href="#cG1" x="882" y="102"/>
<use href="#cG1" x="902" y="102"/>
<use href="#cG1" x="922" y="102"/>
<use href="#cG1" x="942" y="102"/>
<use href="#cG2" x="862" y="122"/>
<use href="#cG1" x="902" y="122"/>
<use href="#cG3" x="922" y="122"/>
<use href="#cG1" x="942" y="122"/>
</g>
</g>
<g>
<animate attributeName="opacity" dur="5580ms" repeatCount="indefinite" calcMode="discrete" keyTimes="0;0.602151;0.677419;0.998800;1" values="0;1;1;0;0"/>
<g>
<animateTransform attributeName="transform" type="translate" dur="5580ms" repeatCount="indefinite" calcMode="linear" keyTimes="0;0.602151;0.677419;0.998800;1" values="0,-280;0,-280;0,0;0,0;0,-280"/>
<use href="#cG1" x="962" y="2"/>
<use href="#cG1" x="1022" y="2"/>
<use href="#cG1" x="1042" y="2"/>
<use href="#cG1" x="962" y="22"/>
<use href="#cG1" x="1002" y="22"/>
<use href="#cG1" x="962" y="42"/>
<use href="#cG1" x="1002" y="42"/>
<use href="#cG1" x="982" y="62"/>
<use href="#cG1" x="1022" y="62"/>
<use href="#cG2" x="1042" y="62"/>
<use href="#cG1" x="962" y="82"/>
<use href="#cG1" x="982" y="82"/>
<use href="#cG1" x="1002" y="82"/>
<use href="#cG1" x="1022" y="82"/>
<use href="#cG4" x="1042" y="82"/>
<use href="#cG1" x="962" y="102"/>
<use href="#cG1" x="982" y="102"/>
<use href="#cG1" x="1002" y="102"/>
<use href="#cG1" x="1022" y="102"/>
<use href="#cG1" x="1042" y="102"/>
<use href="#cG1" x="962" y="122"/>
<use href="#cG2" x="1002" y="122"/>
<use href="#cG2" x="1022" y="122"/>
</g>
</g>
</g>
</svg>