<?xml version="1.0" encoding="UTF-8"?>
<svg xmlns="http://www.w3.org/2000/svg" xmlns:xlink="http://www.w3.org/1999/xlink" width="958" height="130" viewBox="0 0 958 130" role="img" aria-label="Contribution graph animation">
<title>Tetrass</title>
<defs>
<symbol id="cE" viewBox="0 0 18 18"><rect width="18" height="18" fill="#ebedf0" rx="2"/></symbol>
<symbol id="cG1" viewBox="0 0 18 18"><rect width="18" height="18" fill="#9be9a8" rx="2"/></symbol>
<symbol id="cG2" viewBox="0 0 18 18"><rect width="18" height="18" fill="#40c463" rx="2"/></symbol>
<symbol id="cG3" viewBox="0 0 18 18"><rect width="18" height="18" fill="#30a14e" rx="2"/></symbol>
<symbol id="cG4" viewBox="0 0 18 18"><rect width="18" height="18" fill="#216e39" rx="2"/></symbol>
</defs>
<rect width="100%" height="100%" fill="#ffffff"/>
<g id="emptyCells">
<use href="#cE" x="2" y="2"/><use href="#cE" x="20" y="2"/><use href="#cE" x="38" y="2"/><use href="#cE" x="56" y="2"/><use href="#cE" x="74" y="2"/><use href="#cE" x="92" y="2"/><use href="#cE" x="110" y="2"/><use href="#cE" x="128" y="2"/><use href="#cE" x="146" y="2"/><use href="#cE" x="164" y="2"/><use href="#cE" x="182" y="2"/><use href="#cE" x="200" y="2"/><use href="#cE" x="218" y="2"/><use href="#cE" x="236" y="2"/><use href="#cE" x="254" y="2"/><use href="#cE" x="272" y="2"/><use href="#cE" x="290" y="2"/><use href="#cE" x="308" y="2"/><use href="#cE" x="326" y="2"/><use href="#cE" x="344" y="2"/><use href="#cE" x="362" y="2"/><use href="#cE" x="380" y="2"/><use href="#cE" x="398" y="2"/><use href="#cE" x="416" y="2"/><use href="#cE" x="434" y="2"/><use href="#cE" x="452" y="2"/><use href="#cE" x="470" y="2"/><use href="#cE" x="488" y="2"/><use href="#cE" x="506" y="2"/><use href="#cE" x="524" y="2"/><use href="#cE" x="542" y="2"/><use href="#cE" x="560" y="2"/><use href="#cE" x="578" y="2"/><use href="#cE" x="596" y="2"/><use href="#cE" x="614" y="2"/><use href="#cE" x="632" y="2"/><use href="#cE" x="650" y="2"/><use href="#cE" x="668" y="2"/><use href="#cE" x="686" y="2"/><use href="#cE" x="704" y="2"/><use href="#cE" x="722" y="2"/><use href="#cE" x="740" y="2"/><use href="#cE" x="758" y="2"/><use href="#cE" x="776" y="2"/><use href="#cE" x="794" y="2"/><use href="#cE" x="812" y="2"/><use href="#cE" x="830" y="2"/><use href="#cE" x="848" y="2"/><use href="#cE" x="866" y="2"/><use href="#cE" x="884" y="2"/><use href="#cE" x="902" y="2"/><use href="#cE" x="920" y="2"/><use href="#cE" x="938" y="2"/><use href="#cE" x="2" y="20"/><use href="#cE" x="20" y="20"/><use href="#cE" x="38" y="20"/><use href="#cE" x="56" y="20"/><use href="#cE" x="74" y="20"/><use href="#cE" x="92" y="20"/><use href="#cE" x="110" y="20"/><use href="#cE" x="128" y="20"/><use href="#cE" x="146" y="20"/><use href="#cE" x="164" y="20"/><use href="#cE" x="182" y="20"/><use href="#cE" x="200" y="20"/><use href="#cE" x="218" y="20"/><use href="#cE" x="236" y="20"/><use href="#cE" x="254" y="20"/><use href="#cE" x="272" y="20"/><use href="#cE" x="290" y="20"/><use href="#cE" x="308" y="20"/><use href="#cE" x="326" y="20"/><use href="#cE" x="344" y="20"/><use href="#cE" x="362" y="20"/><use href="#cE" x="380" y="20"/><use href="#cE" x="398" y="20"/><use href="#cE" x="416" y="20"/><use href="#cE" x="434" y="20"/><use href="#cE" x="452" y="20"/><use href="#cE" x="470" y="20"/><use href="#cE" x="488" y="20"/><use href="#cE" x="506" y="20"/><use href="#cE" x="524" y="20"/><use href="#cE" x="542" y="20"/><use href="#cE" x="560" y="20"/><use href="#cE" x="578" y="20"/><use href="#cE" x="596" y="20"/><use href="#cE" x="614" y="20"/><use href="#cE" x="632" y="20"/><use href="#cE" x="650" y="20"/><use href="#cE" x="668" y="20"/><use href="#cE" x="686" y="20"/><use href="#cE" x="704" y="20"/><use href="#cE" x="722" y="20"/><use href="#cE" x="740" y="20"/><use href="#cE" x="758" y="20"/><use href="#cE" x="776" y="20"/><use href="#cE" x="794" y="20"/><use href="#cE" x="812" y="20"/><use href="#cE" x="830" y="20"/><use href="#cE" x="848" y="20"/><use href="#cE" x="866" y="20"/><use href="#cE" x="884" y="20"/><use href="#cE" x="902" y="20"/><use href="#cE" x="920" y="20"/><use href="#cE" x="938" y="20"/><use href="#cE" x="2" y="38"/><use href="#cE" x="20" y="38"/><use href="#cE" x="38" y="38"/><use href="#cE" x="56" y="38"/><use href="#cE" x="74" y="38"/><use href="#cE" x="92" y="38"/><use href="#cE" x="110" y="38"/><use href="#cE" x="128" y="38"/><use href="#cE" x="146" y="38"/><use href="#cE" x="164" y="38"/><use href="#cE" x="182" y="38"/><use href="#cE" x="200" y="38"/><use href="#cE" x="218" y="38"/><use href="#cE" x="236" y="38"/><use href="#cE" x="254" y="38"/><use href="#cE" x="272" y="38"/><use href="#cE" x="290" y="38"/><use href="#cE" x="308" y="38"/><use href="#cE" x="326" y="38"/><use href="#cE" x="344" y="38"/><use href="#cE" x="362" y="38"/><use href="#cE" x="380" y="38"/><use href="#cE" x="398" y="38"/><use href="#cE" x="416" y="38"/><use href="#cE" x="434" y="38"/><use href="#cE" x="452" y="38"/><use href="#cE" x="470" y="38"/><use href="#cE" x="488" y="38"/><use href="#cE" x="506" y="38"/><use href="#cE" x="524" y="38"/><use href="#cE" x="542" y="38"/><use href="#cE" x="560" y="38"/><use href="#cE" x="578" y="38"/><use href="#cE" x="596" y="38"/><use href="#cE" x="614" y="38"/><use href="#cE" x="632" y="38"/><use href="#cE" x="650" y="38"/><use href="#cE" x="668" y="38"/><use href="#cE" x="686" y="38"/><use href="#cE" x="704" y="38"/><use href="#cE" x="722" y="38"/><use href="#cE" x="740" y="38"/><use href="#cE" x="758" y="38"/><use href="#cE" x="776" y="38"/><use href="#cE" x="794" y="38"/><use href="#cE" x="812" y="38"/><use href="#cE" x="830" y="38"/><use href="#cE" x="848" y="38"/><use href="#cE" x="866" y="38"/><use href="#cE" x="884" y="38"/><use href="#cE" x="902" y="38"/><use href="#cE" x="920" y="38"/><use href="#cE" x="938" y="38"/><use href="#cE" x="2" y="56"/><use href="#cE" x="20" y="56"/><use href="#cE" x="38" y="56"/><use href="#cE" x="56" y="56"/><use href="#cE" x="74" y="56"/><use href="#cE" x="92" y="56"/><use href="#cE" x="110" y="56"/><use href="#cE" x="128" y="56"/><use href="#cE" x="146" y="56"/><use href="#cE" x="164" y="56"/><use href="#cE" x="182" y="56"/><use href="#cE" x="200" y="56"/><use href="#cE" x="218" y="56"/><use href="#cE" x="236" y="56"/><use href="#cE" x="254" y="56"/><use href="#cE" x="272" y="56"/><use href="#cE" x="290" y="56"/><use href="#cE" x="308" y="56"/><use href="#cE" x="326" y="56"/><use href="#cE" x="344" y="56"/><use href="#cE" x="362" y="56"/><use href="#cE" x="380" y="56"/><use href="#cE" x="398" y="56"/><use href="#cE" x="416" y="56"/><use href="#cE" x="434" y="56"/><use href="#cE" x="452" y="56"/><use href="#cE" x="470" y="56"/><use href="#cE" x="488" y="56"/><use href="#cE" x="506" y="56"/><use href="#cE" x="524" y="56"/><use href="#cE" x="542" y="56"/><use href="#cE" x="560" y="56"/><use href="#cE" x="578" y="56"/><use href="#cE" x="596" y="56"/><use href="#cE" x="614" y="56"/><use href="#cE" x="632" y="56"/><use href="#cE" x="650" y="56"/><use href="#cE" x="668" y="56"/><use href="#cE" x="686" y="56"/><use href="#cE" x="704" y="56"/><use href="#cE" x="722" y="56"/><use href="#cE" x="740" y="56"/><use href="#cE" x="758" y="56"/><use href="#cE" x="776" y="56"/><use href="#cE" x="794" y="56"/><use href="#cE" x="812" y="56"/><use href="#cE" x="830" y="56"/><use href="#cE" x="848" y="56"/><use href="#cE" x="866" y="56"/><use href="#cE" x="884" y="56"/><use href="#cE" x="902" y="56"/><use href="#cE" x="920" y="56"/><use href="#cE" x="938" y="56"/><use href="#cE" x="2" y="74"/><use href="#cE" x="20" y="74"/><use href="#cE" x="38" y="74"/><use href="#cE" x="56" y="74"/><use href="#cE" x="74" y="74"/><use href="#cE" x="92" y="74"/><use href="#cE" x="110" y="74"/><use href="#cE" x="128" y="74"/><use href="#cE" x="146" y="74"/><use href="#cE" x="164" y="74"/><use href="#cE" x="182" y="74"/><use href="#cE" x="200" y="74"/><use href="#cE" x="218" y="74"/><use href="#cE" x="236" y="74"/><use href="#cE" x="254" y="74"/><use href="#cE" x="272" y="74"/><use href="#cE" x="290" y="74"/><use href="#cE" x="308" y="74"/><use href="#cE" x="326" y="74"/><use href="#cE" x="344" y="74"/><use href="#cE" x="362" y="74"/><use href="#cE" x="380" y="74"/><use href="#cE" x="398" y="74"/><use href="#cE" x="416" y="74"/><use href="#cE" x="434" y="74"/><use href="#cE" x="452" y="74"/><use href="#cE" x="470" y="74"/><use href="#cE" x="488" y="74"/><use href="#cE" x="506" y="74"/><use href="#cE" x="524" y="74"/><use href="#cE" x="542" y="74"/><use href="#cE" x="560" y="74"/><use href="#cE" x="578" y="74"/><use href="#cE" x="596" y="74"/><use href="#cE" x="614" y="74"/><use href="#cE" x="632" y="74"/><use href="#cE" x="650" y="74"/><use href="#cE" x="668" y="74"/><use href="#cE" x="686" y="74"/><use href="#cE" x="704" y="74"/><use href="#cE" x="722" y="74"/><use href="#cE" x="740" y="74"/><use href="#cE" x="758" y="74"/><use href="#cE" x="776" y="74"/><use href="#cE" x="794" y="74"/><use href="#cE" x="812" y="74"/><use href="#cE" x="830" y="74"/><use href="#cE" x="848" y="74"/><use href="#cE" x="866" y="74"/><use href="#cE" x="884" y="74"/><use href="#cE" x="902" y="74"/><use href="#cE" x="920" y="74"/><use href="#cE" x="938" y="74"/><use href="#cE" x="2" y="92"/><use href="#cE" x="20" y="92"/><use href="#cE" x="38" y="92"/><use href="#cE" x="56" y="92"/><use href="#cE" x="74" y="92"/><use href="#cE" x="92" y="92"/><use href="#cE" x="110" y="92"/><use href="#cE" x="128" y="92"/><use href="#cE" x="146" y="92"/><use href="#cE" x="164" y="92"/><use href="#cE" x="182" y="92"/><use href="#cE" x="200" y="92"/><use href="#cE" x="218" y="92"/><use href="#cE" x="236" y="92"/><use href="#cE" x="254" y="92"/><use href="#cE" x="272" y="92"/><use href="#cE" x="290" y="92"/><use href="#cE" x="308" y="92"/><use href="#cE" x="326" y="92"/><use href="#cE" x="344" y="92"/><use href="#cE" x="362" y="92"/><use href="#cE" x="380" y="92"/><use href="#cE" x="398" y="92"/><use href="#cE" x="416" y="92"/><use href="#cE" x="434" y="92"/><use href="#cE" x="452" y="92"/><use href="#cE" x="470" y="92"/><use href="#cE" x="488" y="92"/><use href="#cE" x="506" y="92"/><use href="#cE" x="524" y="92"/><use href="#cE" x="542" y="92"/><use href="#cE" x="560" y="92"/><use href="#cE" x="578" y="92"/><use href="#cE" x="596" y="92"/><use href="#cE" x="614" y="92"/><use href="#cE" x="632" y="92"/><use href="#cE" x="650" y="92"/><use href="#cE" x="668" y="92"/><use href="#cE" x="686" y="92"/><use href="#cE" x="704" y="92"/><use href="#cE" x="722" y="92"/><use href="#cE" x="740" y="92"/><use href="#cE" x="758" y="92"/><use href="#cE" x="776" y="92"/><use href="#cE" x="794" y="92"/><use href="#cE" x="812" y="92"/><use href="#cE" x="830" y="92"/><use href="#cE" x="848" y="92"/><use href="#cE" x="866" y="92"/><use href="#cE" x="884" y="92"/><use href="#cE" x="902" y="92"/><use href="#cE" x="920" y="92"/><use href="#cE" x="938" y="92"/><use href="#cE" x="2" y="110"/><use href="#cE" x="20" y="110"/><use href="#cE" x="38" y="110"/><use href="#cE" x="56" y="110"/><use href="#cE" x="74" y="110"/><use href="#cE" x="92" y="110"/><use href="#cE" x="110" y="110"/><use href="#cE" x="128" y="110"/><use href="#cE" x="146" y="110"/><use href="#cE" x="164" y="110"/><use href="#cE" x="182" y="110"/><use href="#cE" x="200" y="110"/><use href="#cE" x="218" y="110"/><use href="#cE" x="236" y="110"/><use href="#cE" x="254" y="110"/><use href="#cE" x="272" y="110"/><use href="#cE" x="290" y="110"/><use href="#cE" x="308" y="110"/><use href="#cE" x="326" y="110"/><use href="#cE" x="344" y="110"/><use href="#cE" x="362" y="110"/><use href="#cE" x="380" y="110"/><use href="#cE" x="398" y="110"/><use href="#cE" x="416" y="110"/><use href="#cE" x="434" y="110"/><use href="#cE" x="452" y="110"/><use href="#cE" x="470" y="110"/><use href="#cE" x="488" y="110"/><use href="#cE" x="506" y="110"/><use href="#cE" x="524" y="110"/><use href="#cE" x="542" y="110"/><use href="#cE" x="560" y="110"/><use href="#cE" x="578" y="110"/><use href="#cE" x="596" y="110"/><use href="#cE" x="614" y="110"/><use href="#cE" x="632" y="110"/><use href="#cE" x="650" y="110"/><use href="#cE" x="668" y="110"/><use href="#cE" x="686" y="110"/><use href="#cE" x="704" y="110"/><use href="#cE" x="722" y="110"/><use href="#cE" x="740" y="110"/><use href="#cE" x="758" y="110"/><use href="#cE" x="776" y="110"/><use href="#cE" x="794" y="110"/><use href="#cE" x="812" y="110"/><use href="#cE" x="830" y="110"/><use href="#cE" x="848" y="110"/><use href="#cE" x="866" y="110"/><use href="#cE" x="884" y="110"/><use href="#cE" x="902" y="110"/><use href="#cE" x="920" y="110"/><use href="#cE" x="938" y="110"/>
</g>
<g id="grassDrops">
<g>
<animate attributeName="opacity" dur="5580ms" repeatCount="indefinite" calcMode="discrete" keyTimes="0;0.451613;0.526882;0.998800;1" values="0;1;1;1;0"/>
<g>
<animateTransform attributeName="transform" type="translate" dur="5580ms" repeatCount="indefinite" calcMode="linear" keyTimes="0;0.451613;0.526882;0.998800;1" values="0,-252;0,-252;0,0;0,0;0,-252"/>
<use href="#cG2" x="668" y="20"/>
<use href="#cG3" x="686" y="20"/>
<use href="#cG3" x="704" y="20"/>
<use href="#cG3" x="722" y="20"/>
<use href="#cG4" x="740" y="20"/>
<use href="#cG2" x="668" y="38"/>
<use href="#cG3" x="686" y="38"/>
<use href="#cG3" x="704" y="38"/>
<use href="#cG3" x="722" y="38"/>
<use href="#cG4" x="740" y="38"/>
<use href="#cG2" x="668" y="56"/>
<use href="#cG3" x="686" y="56"/>
<use href="#cG3" x="704" y="56"/>
<use href="#cG3" x="722" y="56"/>
<use href="#cG4" x="740" y="56"/>
<use href="#cG2" x="668" y="74"/>
<use href="#cG3" x="686" y="74"/>
<use href="#cG3" x="704" y="74"/>
<use href="#cG3" x="722" y="74"/>
<use href="#cG4" x="740" y="74"/>
<use href="#cG2" x="668" y="92"/>
<use href="#cG3" x="686" y="92"/>
<use href="#cG3" x="704" y="92"/>
<use href="#cG3" x="722" y="92"/>
<use href="#cG4" x="740" y="92"/>
</g>
</g>
<g>
<animate attributeName="opacity" dur="5580ms" repeatCount="indefinite" calcMode="discrete" keyTimes="0;0.526882;0.602151;0.998800;1" values="0;1;1;1;0"/>
<g>
<animateTransform attributeName="transform" type="translate" dur="5580ms" repeatCount="indefinite" calcMode="linear" keyTimes="0;0.526882;0.602151;0.998800;1" values="0,-252;0,-252;0,0;0,0;0,-252"/>
<use href="#cG4" x="758" y="20"/>
<use href="#cG4" x="776" y="20"/>
<use href="#cG4" x="794" y="20"/>
<use href="#cG1" x="812" y="20"/>
<use href="#cG2" x="830" y="20"/>
<use href="#cG2" x="848" y="20"/>
<use href="#cG4" x="758" y="38"/>
<use href="#cG4" x="776" y="38"/>
<use href="#cG4" x="794" y="38"/>
<use href="#cG1" x="812" y="38"/>
<use href="#cG2" x="830" y="38"/>
<use href="#cG2" x="848" y="38"/>
<use href="#cG4" x="758" y="56"/>
<use href="#cG4" x="776" y="56"/>
<use href="#cG4" x="794" y="56"/>
<use href="#cG1" x="812" y="56"/>
<use href="#cG2" x="830" y="56"/>
<use href="#cG2" x="848" y="56"/>
<use href="#cG4" x="758" y="74"/>
<use href="#cG4" x="776" y="74"/>
<use href="#cG4" x="794" y="74"/>
<use href="#cG1" x="812" y="74"/>
<use href="#cG2" x="830" y="74"/>
<use href="#cG2" x="848" y="74"/>
<use href="#cG4" x="758" y="92"/>
<use href="#cG4" x="776" y="92"/>
<use href="#cG4" x="794" y="92"/>
<use href="#cG1" x="812" y="92"/>
<use href="#cG2" x="830" y="92"/>
<use href="#cG2" x="848" y="92"/>
</g>
</g>
<g>
<animate attributeName="opacity" dur="5580ms" repeatCount="indefinite" calcMode="discrete" keyTimes="0;0.602151;0.677419;0.998800;1" values="0;1;1;1;0"/>
<g>
<animateTransform attributeName="transform" type="translate" dur="5580ms" repeatCount="indefinite" calcMode="linear" keyTimes="0;0.602151;0.677419;0.998800;1" values="0,-252;0,-252;0,0;0,0;0,-252"/>
<use href="#cG2" x="866" y="20"/>
<use href="#cG3" x="884" y="20"/>
<use href="#cG3" x="902" y="20"/>
<use href="#cG3" x="920" y="20"/>
<use href="#cG4" x="938" y="20"/>
<use href="#cG2" x="866" y="38"/>
<use href="#cG3" x="884" y="38"/>
<use href="#cG3" x="902" y="38"/>
<use href="#cG3" x="920" y="38"/>
<use href="#cG2" x="866" y="56"/>
<use href="#cG3" x="884" y="56"/>
<use href="#cG3" x="902" y="56"/>
<use href="#cG3" x="920" y="56"/>
<use href="#cG2" x="866" y="74"/>
<use href="#cG3" x="884" y="74"/>
<use href="#cG3" x="902" y="74"/>
<use href="#cG3" x="920" y="74"/>
<use href="#cG2" x="866" y="92"/>
<use href="#cG3" x="884" y="92"/>
<use href="#cG3" x="902" y="92"/>
<use href="#cG3" x="920" y="92"/>
</g>
</g>
</g>
</svg>